HIERARCHY
ROOT Hips
{
  OFFSET 3.13124 94.3669 -3.18751
  CHANNELS  6 Xposition Yposition Zposition Zrotation Xrotation Yrotation
  JOINT LeftUpLeg
  {
    OFFSET 8.64259 1.95398 -2.38835
    CHANNELS 3 Zrotation Xrotation Yrotation
    JOINT LeftLeg
    {
      OFFSET 43.7702 0 0
      CHANNELS 3 Zrotation Xrotation Yrotation
      JOINT LeftFoot
      {
        OFFSET 40.6238 0 0
        CHANNELS 3 Zrotation Xrotation Yrotation
        JOINT LeftToeBase
        {
          OFFSET 12.7242 0 0
          CHANNELS 3 Zrotation Xrotation Yrotation
          End Site
          {
            OFFSET 0 0 0
          }
        }
      }
    }
  }
  JOINT RightUpLeg
  {
    OFFSET -8.2249 1.95398 -2.59336
    CHANNELS 3 Zrotation Xrotation Yrotation
    JOINT RightLeg
    {
      OFFSET 43.5653 0 0
      CHANNELS 3 Zrotation Xrotation Yrotation
      JOINT RightFoot
      {
        OFFSET 40.6238 0 0
        CHANNELS 3 Zrotation Xrotation Yrotation
        JOINT RightToeBase
        {
          OFFSET 12.7242 0 0
          CHANNELS 3 Zrotation Xrotation Yrotation
          End Site
          {
            OFFSET 0 0 0
          }
        }
      }
    }
  }
  JOINT Spine
  {
    OFFSET 0.165834 0.87714 6.61349
    CHANNELS 3 Zrotation Xrotation Yrotation
    JOINT Spine1
    {
      OFFSET 7.38962 1.71661e-005 0
      CHANNELS 3 Zrotation Xrotation Yrotation
      JOINT Spine2
      {
        OFFSET 11.9445 1.14441e-005 0
        CHANNELS 3 Zrotation Xrotation Yrotation
        JOINT Spine3
        {
          OFFSET 14.7254 4.19617e-005 0
          CHANNELS 3 Zrotation Xrotation Yrotation
          JOINT Spine4
          {
            OFFSET 10.9679 0 0
            CHANNELS 3 Zrotation Xrotation Yrotation
            JOINT RightShoulder
            {
              OFFSET 2.46616 -1.6653 3.69651
              CHANNELS 3 Zrotation Xrotation Yrotation
              JOINT RightArm
              {
                OFFSET 13.0012 0 0
                CHANNELS 3 Zrotation Xrotation Yrotation
                JOINT RightForeArm
                {
                  OFFSET 28.7848 1.52588e-005 0
                  CHANNELS 3 Zrotation Xrotation Yrotation
                  JOINT RightHand
                  {
                    OFFSET 26.5688 1.52588e-005 0
                    CHANNELS 3 Zrotation Xrotation Yrotation
                    End Site
                    {
                      OFFSET 0 0 0
                    }
                  }
                }
              }
            }
            JOINT LeftShoulder
            {
              OFFSET 2.38034 -1.29275 -3.75231
              CHANNELS 3 Zrotation Xrotation Yrotation
              JOINT LeftArm
              {
                OFFSET 16.3182 6.10352e-005 0
                CHANNELS 3 Zrotation Xrotation Yrotation
                JOINT LeftForeArm
                {
                  OFFSET 27.0901 0 0
                  CHANNELS 3 Zrotation Xrotation Yrotation
                  JOINT LeftHand
                  {
                    OFFSET 24.5451 1.52588e-005 0
                    CHANNELS 3 Zrotation Xrotation Yrotation
                    End Site
                    {
                      OFFSET 0 0 0
                    }
                  }
                }
              }
            }
            JOINT Neck
            {
              OFFSET 5.0226 -0.0266342 0
              CHANNELS 3 Zrotation Xrotation Yrotation
              JOINT Head
              {
                OFFSET 6.69363 2.86102e-005 0
                CHANNELS 3 Zrotation Xrotation Yrotation
                End Site
                {
                  OFFSET 0 0 0
                }
              }
            }
          }
        }
      }
    }
  }
}
MOTION
Frames:	16
Frame Time:	0.0333333
-44.6308 98.4188 -119.387 -78.7268 -13.5859 -94.481 -172.331 12.0642 103.859 -6.48151 -3.5783 4.12887 6.66003 -4.96151 -10.7445 28.7808 5.05434e-006 7.12239e-006 178.403 32.4929 84.5888 -32.1113 -15.0182 -1.10719 63.5747 -9.7038 -5.33285 28.7808 1.23702e-005 2.70291e-005 -1.28003 7.89086 -94.0242 11.2443 -4.73905 -1.35393 -0.41847 -4.79404 -1.14362 -23.0033 -4.11288 -2.71748 -2.99069 -4.11285 -2.71748 104.611 -46.0853 -78.0022 48.8275 17.7905 -36.3673 -4.3567 0.580087 -11.6589 -5.37983 -0.320022 -0.0162412 -83.6154 -22.9227 84.2663 -29.8926 7.33379 -16.8514 20.5103 -3.7985 -86.8011 6.90997 -2.29417 -31.0716 23.2189 17.8254 -20.3238 -36.309 10.286 45.5312 
-44.3251 97.6507 -119.243 -77.6022 -11.8859 -94.7495 -172.323 13.3343 104.624 -6.25833 -2.96133 4.25359 5.85609 -5.51502 -11.8438 28.7808 5.05434e-006 7.12239e-006 178.862 35.7399 84.4519 -35.5195 -15.7755 -1.26315 64.6592 -10.3563 -5.62523 28.7808 1.23702e-005 2.70291e-005 -1.24391 8.08879 -93.9204 10.8564 -4.78626 -1.07738 -0.805987 -4.82902 -0.865208 -23.3961 -4.24089 -2.46823 -3.38342 -4.24089 -2.46824 103.605 -46.1072 -79.6465 49.3374 16.8968 -37.0556 -4.23584 0.564971 -11.6827 -5.37983 -0.320022 -0.0162412 -83.8432 -23.5811 83.917 -31.7345 5.88791 -19.272 23.5915 -2.68379 -83.7023 2.05722 -1.25346 -33.7429 25.3379 18.3159 -22.3546 -37.3284 10.7339 47.6044 
-43.9757 96.8007 -119.139 -76.4306 -10.3364 -94.8283 -172.167 14.4463 105.546 -6.15188 -2.45409 4.36588 5.35953 -5.97396 -12.7273 28.7808 5.05434e-006 7.12239e-006 179.305 38.8087 84.4748 -38.4447 -16.4146 -1.32955 65.8604 -10.7568 -5.74774 28.7808 1.23702e-005 2.70291e-005 -1.2136 8.29919 -93.7976 10.4401 -4.81102 -0.841206 -1.22202 -4.84344 -0.628167 -23.8158 -4.33548 -2.25071 -3.80317 -4.33547 -2.25071 102.859 -45.8749 -80.8638 50.3844 15.9284 -37.8363 -4.44315 0.586558 -11.8367 -5.37983 -0.320022 -0.0162412 -84.0029 -24.1664 83.7043 -33.1589 4.88058 -21.5428 21.2932 -1.42918 -81.512 -0.903987 -0.500618 -35.4261 27.8602 18.768 -24.5299 -38.341 11.1371 50.1816 
-43.5847 95.9157 -119.06 -74.9461 -8.87605 -94.6969 -172.182 15.7061 106.586 -6.01537 -2.92879 4.59433 4.195 -6.43354 -13.8232 28.7808 5.05434e-006 7.12239e-006 179.743 42.2412 84.7337 -41.4143 -16.8738 -1.36137 66.6257 -11.0536 -5.84686 28.7808 1.23702e-005 2.70291e-005 -1.15346 8.46728 -93.6962 10.1031 -4.80152 -0.672312 -1.55903 -4.82642 -0.459854 -24.1546 -4.37706 -2.08687 -4.14192 -4.37708 -2.08689 102.402 -45.3281 -81.6132 51.3679 14.7496 -38.5723 -4.62337 0.607074 -11.82 -5.37983 -0.320022 -0.0162412 -84.2879 -24.4569 83.1645 -34.8507 3.7604 -23.8845 20.2692 0.162534 -78.8625 -1.15732 -0.409282 -33.8794 30.8128 19.1662 -25.7467 -39.5378 11.7929 51.0008 
-43.3261 95.038 -119.039 -73.8503 -7.32857 -94.689 -171.972 16.2238 107.582 -5.83612 -4.13787 4.64534 4.00054 -6.28805 -13.6423 28.7808 5.05434e-006 7.12239e-006 -179.962 44.9994 85.1458 -43.962 -17.3525 -1.40104 67.4955 -11.6141 -6.07166 28.7808 1.23702e-005 2.70291e-005 -1.15263 8.65257 -93.5088 9.73232 -4.76738 -0.46829 -1.92988 -4.78336 -0.257521 -24.5267 -4.40582 -1.88212 -4.51404 -4.40582 -1.88214 101.556 -44.9664 -83.017 51.9924 14.2877 -39.1207 -4.77909 0.613432 -11.6998 -5.37983 -0.320022 -0.0162412 -84.5236 -24.4182 82.6568 -37.09 2.5852 -25.6237 18.5595 1.70347 -76.0071 0.185227 -0.712609 -31.6669 32.8459 19.5918 -27.0877 -40.5945 12.212 52.3821 
-43.0057 94.2426 -119.023 -72.6513 -5.64618 -94.3939 -171.795 16.7502 108.799 -5.75508 -4.6044 4.84182 3.56659 -6.49617 -14.1229 28.7808 5.05434e-006 7.12239e-006 -179.914 47.6105 86.1006 -45.9502 -17.7148 -1.4393 68.0674 -11.8767 -6.15793 28.7808 1.23702e-005 2.70291e-005 -1.08017 8.8335 -93.4296 9.3622 -4.64602 -0.415308 -2.30043 -4.65981 -0.209972 -24.8945 -4.30605 -1.79496 -4.8819 -4.30604 -1.79495 100.791 -43.9075 -84.32 52.668 13.659 -39.5448 -4.98709 0.660559 -11.6797 -5.37983 -0.320022 -0.0162412 -84.6528 -25.0779 82.5402 -38.4171 1.68046 -27.6836 18.8192 3.27136 -72.7992 0.511496 -0.793494 -31.7614 34.8761 20.4073 -26.4352 -41.0974 13.0463 52.1338 
-42.6147 93.4482 -119.055 -71.5855 -4.47944 -94.4855 -171.602 17.2028 109.521 -5.79825 -5.12692 4.83912 4.24347 -6.46777 -13.8645 28.7808 5.05434e-006 7.12239e-006 -179.746 50.1746 86.4296 -48.0363 -18.2656 -1.48931 68.6234 -12.1998 -6.27596 28.7808 1.23702e-005 2.70291e-005 -1.09625 9.01466 -93.1714 8.99815 -4.57837 -0.170557 -2.66472 -4.58142 0.0315245 -25.2592 -4.31504 -1.54123 -5.24657 -4.31505 -1.54126 100.065 -43.6607 -85.555 52.9787 13.1491 -39.8108 -5.04605 0.684391 -11.7142 -5.37983 -0.320022 -0.0162412 -84.9321 -24.9206 81.9176 -40.1157 0.514233 -28.7605 21.8221 5.12936 -70.0081 1.04445 -0.919066 -31.6433 36.6964 20.4814 -27.9767 -41.9674 13.1075 53.9525 
-42.1797 92.7021 -119.079 -70.4143 -3.81254 -94.7381 -171.595 17.8159 109.82 -5.73011 -5.17061 4.92198 4.75827 -5.99132 -12.9258 28.7808 5.05434e-006 7.12239e-006 -179.477 52.7815 86.3889 -50.0136 -18.3825 -1.51552 69.1141 -12.5965 -6.43613 28.7808 1.23702e-005 2.70291e-005 -1.13533 9.16273 -92.9387 8.70125 -4.58764 0.0214459 -2.9616 -4.58222 0.223759 -25.5578 -4.38157 -1.36104 -5.54514 -4.38157 -1.36103 99.4033 -42.8336 -86.7241 53.3718 12.5802 -40.1274 -5.08882 0.699417 -11.5987 -5.37983 -0.320022 -0.0162412 -85.157 -25.2977 81.541 -40.6879 -0.230521 -29.758 22.7693 6.77933 -67.7375 2.85848 -1.30717 -30.5269 37.5161 20.9234 -27.9014 -41.8759 13.4859 54.6389 
-41.7511 92.0109 -119.21 -69.3233 -3.15516 -94.8666 -171.343 18.3811 110.268 -5.76767 -6.56357 4.49255 6.65519 -5.46981 -11.5683 28.7808 5.05434e-006 7.12239e-006 -179.391 55.082 86.686 -51.5766 -18.5181 -1.54382 69.547 -12.9695 -6.58359 28.7808 1.23702e-005 2.70291e-005 -1.14065 9.29639 -92.7639 8.43411 -4.55611 0.217783 -3.2289 -4.54208 0.418507 -25.8255 -4.4105 -1.16434 -5.81285 -4.41048 -1.16434 98.9267 -42.3392 -87.5749 53.495 12.0911 -40.6446 -5.08838 0.690193 -11.1426 -5.37983 -0.320022 -0.0162412 -85.2287 -25.6426 81.4779 -41.7379 -0.798167 -31.0225 21.7518 8.08888 -64.9574 6.16566 -2.08217 -30.5879 37.7375 21.2214 -27.8294 -41.5519 13.736 55.2407 
-41.3356 91.4877 -119.295 -68.3726 -3.24993 -95.1985 -171.766 18.9955 110.248 -5.62564 -7.10411 4.94254 6.41601 -6.18216 -12.7702 28.7808 5.05434e-006 7.12239e-006 -178.955 57.0691 86.1184 -52.8962 -18.4423 -1.55446 69.9387 -13.1141 -6.61739 28.7808 1.23702e-005 2.70291e-005 -1.21829 9.4428 -92.5233 8.14318 -4.63734 0.418563 -3.51964 -4.61442 0.622683 -26.1195 -4.5483 -0.997494 -6.10684 -4.54826 -0.997458 98.6071 -41.8942 -88.1612 53.6415 11.5413 -41.0514 -5.00953 0.693644 -11.2674 -5.37983 -0.320022 -0.0162412 -85.2193 -26.1166 81.6144 -42.8359 -1.34191 -32.4566 23.1898 9.84264 -62.0201 5.80679 -2.01379 -30.8067 38.0434 21.4478 -27.3353 -41.1094 14.082 55.1152 
-40.8758 91.034 -119.373 -67.2126 -3.61496 -95.1807 -172.15 20.0644 110.331 -5.46732 -8.09015 5.12764 6.81194 -6.10248 -12.5366 28.7808 5.05434e-006 7.12239e-006 -178.593 59.1004 85.7576 -53.8799 -17.827 -1.53163 70.1568 -13.1628 -6.62175 28.7808 1.23702e-005 2.70291e-005 -1.25479 9.59043 -92.3894 7.85093 -4.75343 0.557613 -3.81156 -4.72425 0.766745 -26.4153 -4.70075 -0.900035 -6.40264 -4.70074 -0.900031 98.0089 -41.4061 -89.2415 54.1722 11.099 -41.929 -5.37881 0.723046 -11.1303 -5.37983 -0.320022 -0.0162412 -85.3673 -25.8129 81.2343 -43.6049 -2.24158 -33.1718 24.2235 11.598 -59.7329 8.12385 -2.45202 -29.6576 39.3371 21.2849 -27.3905 -41.4275 14.1393 54.9733 
-40.4981 90.6227 -119.476 -65.998 -4.21057 -94.9583 -172.523 21.2753 110.526 -5.34147 -9.07415 5.23231 7.97905 -6.56735 -12.9469 28.7808 5.05434e-006 7.12239e-006 -178.231 61.0276 85.4149 -54.7224 -17.1618 -1.50532 70.4524 -13.0137 -6.51612 28.7808 1.23702e-005 2.70291e-005 -1.21874 9.70959 -92.4042 7.60988 -4.8268 0.516817 -4.05229 -4.7994 0.729227 -26.6579 -4.75846 -0.961128 -6.6453 -4.75845 -0.961126 98.0789 -40.8422 -89.1769 53.6096 10.202 -42.8171 -4.85678 0.655462 -11.2849 -5.37983 -0.320022 -0.0162412 -85.5819 -26.3782 80.9363 -43.428 -2.86575 -34.3283 26.3435 14.2495 -56.9891 7.07836 -2.24383 -29.986 40.123 21.6691 -25.6267 -41.4448 14.3543 53.5356 
-40.2764 90.2637 -119.625 -65.2316 -5.30059 -94.8001 -172.923 22.1074 110.495 -5.2518 -9.04919 5.49686 9.28933 -7.85339 -14.5362 28.7808 5.05434e-006 7.12239e-006 -177.589 62.4635 84.5289 -55.7506 -16.0928 -1.45835 70.7967 -12.8358 -6.39329 28.7808 1.23702e-005 2.70291e-005 -1.22668 9.8594 -92.4205 7.31246 -4.96402 0.496385 -4.34918 -4.93731 0.714911 -26.9587 -4.88311 -1.02212 -6.94609 -4.88311 -1.02214 97.7822 -40.2469 -89.7605 53.1677 9.73847 -43.6555 -4.84245 0.73435 -10.8224 -5.37983 -0.320022 -0.0162412 -85.6462 -26.518 80.8405 -43.5544 -3.12376 -35.5459 24.56 15.2894 -53.4306 6.84319 -2.13712 -29.3602 40.494 21.7965 -24.0628 -40.9059 14.5382 52.225 
-39.9473 90.0332 -119.785 -64.5281 -5.88239 -94.5554 -173.218 22.658 110.515 -5.14057 -9.88793 5.62194 11.7673 -8.76315 -15.1208 28.7808 5.05434e-006 7.12239e-006 -177.31 63.6362 84.2717 -56.193 -15.1832 -1.4128 70.8917 -12.5471 -6.2434 28.7808 1.23702e-005 2.70291e-005 -1.16624 10.0137 -92.4493 6.99962 -4.95135 0.458634 -4.66204 -4.92634 0.676636 -27.271 -4.85972 -1.0543 -7.25839 -4.85971 -1.05427 97.3244 -39.243 -90.6889 53.3283 9.46488 -44.4552 -5.0898 0.749848 -11.2277 -5.37983 -0.320022 -0.0162412 -85.7329 -26.5976 80.6836 -43.7929 -3.38999 -36.5722 23.5526 16.8062 -49.6596 7.53123 -2.38319 -30.3832 40.6161 22.0151 -22.5987 -40.2712 14.6838 51.3209 
-39.7384 89.8661 -120.01 -64.1169 -6.44287 -94.1722 -173.485 22.9635 110.597 -4.91015 -9.99577 5.93401 13.5941 -9.75409 -15.9522 28.7808 5.05434e-006 7.12239e-006 -177.242 64.33 84.2973 -56.4991 -14.5553 -1.38045 71.0655 -12.1484 -6.02985 28.7808 1.23702e-005 2.70291e-005 -1.0635 10.237 -92.4396 6.54101 -4.79468 0.403775 -5.12121 -4.77222 0.614894 -27.7254 -4.69386 -1.05918 -7.71276 -4.69384 -1.05915 97.2301 -38.5386 -90.9472 52.9245 8.79132 -45.7877 -5.34584 0.828679 -11.2352 -5.37983 -0.320022 -0.0162412 -85.9426 -25.6717 80.0099 -44.3939 -3.3998 -37.6875 23.4951 18.7226 -46.3555 8.41026 -2.52562 -29.7624 41.5411 21.3769 -22.7708 -40.4888 14.2282 51.2604 
-39.5635 89.7594 -120.211 -63.8749 -6.82903 -94.0047 -173.676 22.9708 110.343 -4.75846 -9.50314 6.17568 16.3684 -10.7478 -16.4098 28.7808 5.05434e-006 7.12239e-006 -177.19 64.7741 84.2966 -56.68 -14.0103 -1.35065 71.4783 -11.6839 -5.76046 28.7808 1.23702e-005 2.70291e-005 -0.954775 10.4314 -92.388 6.13849 -4.56336 0.387724 -5.52456 -4.54185 0.588592 -28.1223 -4.46848 -1.00453 -8.1096 -4.46847 -1.0045 96.717 -37.6314 -92.001 52.6678 8.82375 -47.0293 -5.31654 0.799706 -11.2056 -5.37983 -0.320022 -0.0162412 -86.41 -24.7871 78.7912 -45.0263 -3.54415 -38.4509 21.5801 19.1645 -42.82 10.081 -2.64373 -27.439 41.0038 20.5643 -23.3178 -40.4343 13.3993 51.8864 
